<?xml version="1.0" standalone="no"?><!DOCTYPE svg PUBLIC "-//W3C//DTD SVG 1.1//EN" "http://www.w3.org/Graphics/SVG/1.1/DTD/svg11.dtd"><svg t="1659446051154" class="icon" viewBox="0 0 1024 1024" version="1.1" xmlns="http://www.w3.org/2000/svg" p-id="15493" xmlns:xlink="http://www.w3.org/1999/xlink" width="200" height="200"><defs><style type="text/css">@font-face { font-family: feedback-iconfont; src: url("//at.alicdn.com/t/font_1031158_u69w8yhxdu.woff2?t=1630033759944") format("woff2"), url("//at.alicdn.com/t/font_1031158_u69w8yhxdu.woff?t=1630033759944") format("woff"), url("//at.alicdn.com/t/font_1031158_u69w8yhxdu.ttf?t=1630033759944") format("truetype"); }
</style></defs><path d="M175.104 518.656h120.32v134.656H175.104zM729.088 303.104h120.32v350.72h-120.32z" p-id="15494"></path><path d="M957.44 28.672H66.56c-36.864 0-66.56 29.696-66.56 66.56v623.104c0 36.864 29.696 66.56 66.56 66.56h890.88c36.864 0 66.56-29.696 66.56-66.56V95.232c0-36.864-29.696-66.56-66.56-66.56z m0 667.648c0 12.288-9.728 22.016-22.016 22.016H89.088c-12.288 0-22.016-9.728-22.016-22.016V117.76c0-12.288 9.728-22.016 22.016-22.016h845.824c12.288 0 22.016 9.728 22.016 22.016v578.56z" p-id="15495"></path><path d="M344.064 410.624h120.32v242.688H344.064zM536.576 195.072h120.32v458.752h-120.32z" p-id="15496"></path></svg>